<svg xmlns="http://www.w3.org/2000/svg" width="56.72" height="59.5" viewBox="0 0 56.72 59.5">
  <g id="Database_Icon" data-name="Database Icon" transform="translate(-0.419)">
    <g id="Union_1" data-name="Union 1" transform="translate(0.419)" fill="none">
      <path d="M0,48.571V10.929C0,4.893,12.7,0,28.36,0S56.72,4.893,56.72,10.929V48.571c0,6.036-12.7,10.929-28.36,10.929S0,54.607,0,48.571Z" stroke="none"/>
      <path d="M 28.35981178283691 53.5 C 42.09166717529297 53.5 49.90282440185547 49.58711242675781 50.71962738037109 48.57144165039062 L 50.84675598144531 11.54458427429199 C 49.90282440185547 9.912883758544922 42.09166717529297 5.999998092651367 28.35981178283691 5.999998092651367 C 14.62796878814697 5.999998092651367 6.816797733306885 9.912883758544922 5.999997615814209 10.92855548858643 L 5.87286901473999 47.95541381835938 C 6.816797733306885 49.58711242675781 14.62796878814697 53.5 28.35981178283691 53.5 M 28.35981178283691 59.5 C 12.69726848602295 59.5 -2.502877350707422e-06 54.60728454589844 -2.502877350707422e-06 48.57144165039062 L -2.502877350707422e-06 10.92855548858643 C -2.502877350707422e-06 4.892712593078613 12.69726848602295 -1.9073486328125e-06 28.35981178283691 -1.9073486328125e-06 C 44.02236938476562 -1.9073486328125e-06 56.71962738037109 4.892712593078613 56.71962738037109 10.92855548858643 L 56.71962738037109 48.57144165039062 C 56.71962738037109 54.60728454589844 44.02236938476562 59.5 28.35981178283691 59.5 Z" stroke="none" fill="rgba(0, 0, 0, 0.7)"/>
    </g>
    <path id="Path_6" data-name="Path 6" d="M0,0S3.685,8.018,25.455,7.928,50.744,0,50.744,0" transform="translate(3.293 10.96)" fill="none" stroke="rgba(0, 0, 0, 0.7)" stroke-width="6"/>
    <path id="Path_9" data-name="Path 9" d="M0,0S3.685,9.067,25.455,8.965,50.744,0,50.744,0" transform="translate(3.293 24.03)" fill="none" stroke="rgba(0, 0, 0, 0.7)" stroke-width="6"/>
    <path id="Path_10" data-name="Path 10" d="M0,0S3.685,10.029,25.455,9.916,50.744,0,50.744,0" transform="translate(3.293 37.179)" fill="none" stroke="rgba(0, 0, 0, 0.7)" stroke-width="6"/>
  </g>
</svg>
