<svg xmlns="http://www.w3.org/2000/svg" width="59.163" height="55.539" viewBox="0 0 59.163 55.539">
  <g id="settings" transform="translate(1 1.008)">
    <path id="Path_22" data-name="Path 22" d="M167.892,37.477l-.669-1.6a15.012,15.012,0,0,0,4.246-3.83l1.688.692a1.618,1.618,0,0,0,2.075-.76l1.223-2.617a1.441,1.441,0,0,0-.812-1.944l-1.688-.692a13.535,13.535,0,0,0,.123-5.52l1.71-.627a1.448,1.448,0,0,0,.893-1.912l-1.111-2.66a1.612,1.612,0,0,0-2.041-.837l-1.71.627a14.906,14.906,0,0,0-4.09-3.977l.739-1.581a1.441,1.441,0,0,0-.812-1.944l-2.794-1.145a1.618,1.618,0,0,0-2.075.76l-.739,1.581a16.43,16.43,0,0,0-5.894-.115l-.669-1.6a1.612,1.612,0,0,0-2.041-.837L150.6,7.978a1.448,1.448,0,0,0-.893,1.912l.669,1.6a15.012,15.012,0,0,0-4.246,3.83l-1.688-.692a1.619,1.619,0,0,0-2.075.76l-1.223,2.617a1.441,1.441,0,0,0,.812,1.944l1.688.692a13.535,13.535,0,0,0-.123,5.52l-1.71.627a1.448,1.448,0,0,0-.893,1.912l1.111,2.66a1.612,1.612,0,0,0,2.041.837l1.71-.627a14.906,14.906,0,0,0,4.09,3.977l-.739,1.581a1.441,1.441,0,0,0,.812,1.944l2.794,1.145a1.618,1.618,0,0,0,2.075-.76l.739-1.581a16.43,16.43,0,0,0,5.894.115l.669,1.6a1.612,1.612,0,0,0,2.041.837L167,39.39A1.448,1.448,0,0,0,167.892,37.477ZM153.749,25.535a4.985,4.985,0,0,1,3.076-6.584,5.549,5.549,0,0,1,7.03,2.881,4.985,4.985,0,0,1-3.076,6.584A5.549,5.549,0,0,1,153.749,25.535Z" transform="translate(-120.618 -5.917)" fill="none" stroke="#F5F5F5" stroke-width="2"/>
    <path id="Path_23" data-name="Path 23" d="M157.74,35.532a2.563,2.563,0,0,1-2.383-1.521l-.384-.922A17.387,17.387,0,0,1,150.291,33l-.426.912a2.474,2.474,0,0,1-1.409,1.269,2.7,2.7,0,0,1-1.955-.037L143.707,34a2.451,2.451,0,0,1-1.356-1.321,2.24,2.24,0,0,1,.039-1.831l.425-.911a15.8,15.8,0,0,1-3.25-3.158l-.983.36a2.706,2.706,0,0,1-1.955-.036,2.451,2.451,0,0,1-1.355-1.321l-1.111-2.66a2.239,2.239,0,0,1,.039-1.831,2.472,2.472,0,0,1,1.41-1.269l.983-.36a14.311,14.311,0,0,1,.1-4.385l-.973-.4a2.34,2.34,0,0,1-1.317-3.15l1.223-2.618a2.472,2.472,0,0,1,1.41-1.269,2.7,2.7,0,0,1,1.955.037l.973.4a15.911,15.911,0,0,1,3.372-3.044l-.384-.921a2.238,2.238,0,0,1,.038-1.83,2.475,2.475,0,0,1,1.41-1.27l2.84-1.041A2.693,2.693,0,0,1,149.2.2a2.453,2.453,0,0,1,1.355,1.32l.384.922a17.387,17.387,0,0,1,4.682.092l.426-.912A2.474,2.474,0,0,1,157.453.356a2.708,2.708,0,0,1,1.955.037L162.2,1.538a2.451,2.451,0,0,1,1.356,1.321,2.24,2.24,0,0,1-.039,1.831l-.425.911a15.8,15.8,0,0,1,3.25,3.159l.983-.36a2.7,2.7,0,0,1,1.954.036,2.456,2.456,0,0,1,1.356,1.321l1.111,2.66a2.24,2.24,0,0,1-.039,1.831,2.472,2.472,0,0,1-1.409,1.269l-.984.36a14.306,14.306,0,0,1-.1,4.385l.973.4a2.456,2.456,0,0,1,1.355,1.32,2.24,2.24,0,0,1-.039,1.831l-1.222,2.616a2.47,2.47,0,0,1-1.41,1.27,2.708,2.708,0,0,1-1.955-.037l-.973-.4a15.912,15.912,0,0,1-3.372,3.044l.384.921a2.238,2.238,0,0,1-.038,1.83,2.475,2.475,0,0,1-1.41,1.27l-2.84,1.041A2.713,2.713,0,0,1,157.74,35.532ZM155.6,31.158a.981.981,0,0,1,.911.583l.669,1.6a.611.611,0,0,0,.773.316l2.839-1.041a.548.548,0,0,0,.337-.724h0l-.668-1.6a.887.887,0,0,1,.381-1.1,14.006,14.006,0,0,0,3.977-3.588,1.019,1.019,0,0,1,1.194-.312l1.688.692a.627.627,0,0,0,.456.008.574.574,0,0,0,.33-.3l1.222-2.616a.546.546,0,0,0-.308-.736l-1.688-.692a.9.9,0,0,1-.564-1.033,12.636,12.636,0,0,0,.115-5.17.91.91,0,0,1,.608-1.012l1.71-.627a.576.576,0,0,0,.329-.3.522.522,0,0,0,.009-.428l-1.111-2.66a.606.606,0,0,0-.772-.316l-1.71.626a1.018,1.018,0,0,1-1.179-.357,13.9,13.9,0,0,0-3.831-3.725.885.885,0,0,1-.334-1.119l.739-1.581a.52.52,0,0,0,.009-.427.57.57,0,0,0-.317-.309l-2.793-1.144a.617.617,0,0,0-.786.288L157.1,3.942a1,1,0,0,1-1.1.528,15.323,15.323,0,0,0-5.52-.107,1,1,0,0,1-1.08-.569l-.669-1.6a.572.572,0,0,0-.316-.308.629.629,0,0,0-.457-.008l-2.84,1.041a.548.548,0,0,0-.338.724l.668,1.6a.887.887,0,0,1-.381,1.1,14.006,14.006,0,0,0-3.977,3.588,1.024,1.024,0,0,1-1.194.312l-1.688-.692a.627.627,0,0,0-.456-.008.574.574,0,0,0-.329.3L136.2,12.458a.546.546,0,0,0,.308.735l1.688.692a.9.9,0,0,1,.565,1.034,12.629,12.629,0,0,0-.116,5.169.911.911,0,0,1-.608,1.012l-1.709.627a.576.576,0,0,0-.33.3.525.525,0,0,0-.009.428l1.111,2.66a.573.573,0,0,0,.317.308.635.635,0,0,0,.456.009l1.71-.627a1.018,1.018,0,0,1,1.179.357,13.9,13.9,0,0,0,3.831,3.725A.885.885,0,0,1,144.923,30l-.739,1.581a.52.52,0,0,0-.009.427.57.57,0,0,0,.317.309l2.793,1.144a.614.614,0,0,0,.786-.288l.739-1.581a.989.989,0,0,1,1.1-.528,15.3,15.3,0,0,0,5.52.107A1.091,1.091,0,0,1,155.6,31.158Zm-2.64-7.392a6.428,6.428,0,0,1-5.973-3.814h0a5.892,5.892,0,0,1,3.632-7.772,6.559,6.559,0,0,1,8.3,3.4,5.892,5.892,0,0,1-3.632,7.772A6.76,6.76,0,0,1,152.962,23.766Zm-4.149-4.482a4.553,4.553,0,0,0,5.761,2.362,4.09,4.09,0,0,0,2.521-5.4,4.552,4.552,0,0,0-5.761-2.362,4.09,4.09,0,0,0-2.521,5.4Z" transform="translate(-114.77 -0.001)" fill="none" stroke="#F5F5F5" stroke-width="2"/>
    <path id="Path_24" data-name="Path 24" d="M28.128,205.163h-1.45a11.011,11.011,0,0,0-1.786-4.025l1.029-.964a1.113,1.113,0,0,0,0-1.648l-1.7-1.595a1.3,1.3,0,0,0-1.759,0l-1.029.964a12.623,12.623,0,0,0-4.3-1.672v-1.358A1.206,1.206,0,0,0,15.89,193.7H13.482a1.206,1.206,0,0,0-1.244,1.165v1.358a12.623,12.623,0,0,0-4.3,1.672l-1.029-.964a1.3,1.3,0,0,0-1.759,0l-1.7,1.595a1.113,1.113,0,0,0,0,1.648l1.029.964a11.011,11.011,0,0,0-1.786,4.025H1.244A1.206,1.206,0,0,0,0,206.328v2.255a1.206,1.206,0,0,0,1.244,1.165h1.45a11.011,11.011,0,0,0,1.786,4.025l-1.029.964a1.113,1.113,0,0,0,0,1.648l1.7,1.594a1.3,1.3,0,0,0,1.759,0l1.029-.964a12.623,12.623,0,0,0,4.3,1.672v1.358a1.206,1.206,0,0,0,1.244,1.165H15.89a1.206,1.206,0,0,0,1.244-1.165v-1.358a12.623,12.623,0,0,0,4.3-1.672l1.029.964a1.3,1.3,0,0,0,1.759,0l1.7-1.594a1.113,1.113,0,0,0,0-1.648l-1.029-.964a11.011,11.011,0,0,0,1.786-4.025h1.45a1.206,1.206,0,0,0,1.244-1.165v-2.255A1.206,1.206,0,0,0,28.128,205.163Zm-13.442,6.3a4.021,4.021,0,1,1,0-8.024,4.021,4.021,0,1,1,0,8.024Z" transform="translate(0 -167.68)" fill="none" stroke="#F5F5F5" stroke-width="2"/>
    <g id="Group_16" data-name="Group 16" transform="translate(5.874 13.181)">
      <ellipse id="Ellipse_9" data-name="Ellipse 9" cx="4.895" cy="4.585" rx="4.895" ry="4.585" transform="translate(0.979 0.917)" fill="none" stroke="#F5F5F5" stroke-width="2"/>
      <path id="Path_25" data-name="Path 25" d="M46.834,109.13a5.514,5.514,0,1,1,5.874-5.5A5.7,5.7,0,0,1,46.834,109.13Zm0-9.17a3.676,3.676,0,1,0,3.916,3.668A3.8,3.8,0,0,0,46.834,99.96Z" transform="translate(-40.96 -98.126)" fill="none" stroke="#F5F5F5" stroke-width="2"/>
    </g>
  </g>
</svg>
