<svg id="customer-support" xmlns="http://www.w3.org/2000/svg" width="58.221" height="53.53" viewBox="0 0 58.221 53.53">
  <path id="Path_26" data-name="Path 26" d="M.438,4.978l3.88,6.242a.964.964,0,0,0,.606.423l3.62.832L20.959,23.89l1.372-1.261L9.722,11.036a.992.992,0,0,0-.45-.235L5.793,10,2.49,4.681l2.832-2.6,5.786,3.04.873,3.2a.874.874,0,0,0,.255.415l12.61,11.593,1.371-1.261L13.8,7.647l-.9-3.326a.906.906,0,0,0-.46-.558L5.648.2A1.035,1.035,0,0,0,4.484.339L.6,3.906A.839.839,0,0,0,.438,4.978Zm0,0" transform="translate(-0.31 -0.072)" fill="rgba(0, 0, 0, 0.7)"/>
  <path id="Path_27" data-name="Path 27" d="M196.691,174.98,175.352,194.6l-1.372-1.261,21.339-19.619Zm0,0" transform="translate(-156.237 -157.404)" fill="rgba(0, 0, 0, 0.7)"/>
  <path id="Path_28" data-name="Path 28" d="M58.284,399.268a.99.99,0,0,0-.832-.432h-5.82a.989.989,0,0,0-.831.432l-2.91,4.459a.831.831,0,0,0,0,.919L50.8,409.1a.99.99,0,0,0,.831.432h5.82a.991.991,0,0,0,.832-.432l2.91-4.459a.83.83,0,0,0,0-.919Zm-1.38,8.485H52.182l-2.328-3.567,2.328-3.567H56.9l2.328,3.567Zm0,0" transform="translate(-42.903 -361.38)" fill="rgba(0, 0, 0, 0.7)"/>
  <path id="Path_29" data-name="Path 29" d="M46.831,21.4c6.406.02,11.617-4.739,11.639-10.629a9.855,9.855,0,0,0-.356-2.659.978.978,0,0,0-1.175-.65,1,1,0,0,0-.451.234l-6.038,5.547-4.791-1.468-1.6-4.4L50.1,1.826a.842.842,0,0,0,0-1.261,1,1,0,0,0-.454-.235C43.431-1.117,37.12,2.34,35.547,8.052a9.832,9.832,0,0,0-.355,2.651,9.656,9.656,0,0,0,.236,2.09L14.185,32.322a12.41,12.41,0,0,0-2.272-.217c-6.428,0-11.64,4.791-11.64,10.7s5.211,10.7,11.64,10.7,11.639-4.791,11.639-10.7a9.681,9.681,0,0,0-.236-2.09L28.4,36.042l2.224,2.045a1.031,1.031,0,0,0,1.372,0l.485-.446a1.161,1.161,0,0,1,1.538,0,.943.943,0,0,1,0,1.413l0,0-.485.446a.842.842,0,0,0,0,1.261L45.106,51.4a8.322,8.322,0,0,0,11.071.046,6.8,6.8,0,0,0,.05-10.179l-.05-.046L44.607,30.583a1.031,1.031,0,0,0-1.371,0l-.485.446a1.16,1.16,0,0,1-1.539,0,.943.943,0,0,1,0-1.412l0,0,.485-.446a.842.842,0,0,0,0-1.261l-2.224-2.045,5.085-4.675A12.378,12.378,0,0,0,46.831,21.4Zm3.811,30.32a6.355,6.355,0,0,1-2.063-.346l7.575-6.965a5.29,5.29,0,0,1-3.436,6.965A6.345,6.345,0,0,1,50.642,51.724ZM39.653,28.547a2.632,2.632,0,0,0,.375,3.921,3.232,3.232,0,0,0,3.892,0L54.806,42.482c.118.109.229.224.336.34l-8.293,7.625c-.127-.1-.252-.2-.371-.309L35.584,40.122a2.632,2.632,0,0,0-.375-3.921,3.233,3.233,0,0,0-3.892,0l-1.552-1.427L38.1,27.124Zm3.917-8.969-22,20.226a.845.845,0,0,0-.256.847c1.331,4.8-1.827,9.691-7.053,10.914S3.716,49.886,2.385,45.081,4.213,35.39,9.439,34.166a10.6,10.6,0,0,1,4.818,0,1.038,1.038,0,0,0,.922-.235l22-20.226a.844.844,0,0,0,.255-.847c-1.322-4.748,1.794-9.583,6.959-10.8a10.473,10.473,0,0,1,2.991-.26L42.265,6.506a.841.841,0,0,0-.235.912l1.94,5.351a.935.935,0,0,0,.614.563l5.82,1.784A1.031,1.031,0,0,0,51.4,14.9l5.117-4.7c.012.17.018.339.018.506.027,4.9-4.271,8.892-9.6,8.918a10.467,10.467,0,0,1-2.443-.277,1.029,1.029,0,0,0-.922.234h.005Zm0,0" transform="translate(-0.273 0)" fill="rgba(0, 0, 0, 0.7)"/>
  <path id="Path_30" data-name="Path 30" d="M393.962,391.542,392.59,392.8l-9.7-8.917,1.371-1.261Zm0,0" transform="translate(-343.808 -346.692)" fill="rgba(0, 0, 0, 0.7)"/>
</svg>
